<svg xmlns="http://www.w3.org/2000/svg" viewBox="0 0 100 100">
  <!-- Main Shelf Structure -->
  <path d="
    M10 10
    h80
    v80
    h-80
    Z" fill="#1a1a1a"/>
    
  <!-- Shelf Verticals -->
  <path d="
    M10 10
    h4
    v80
    h-4
    Z
    M48 10
    h4
    v80
    h-4
    Z
    M86 10
    h4
    v80
    h-4
    Z" fill="#333333"/>
    
  <!-- Shelf Horizontals -->
  <path d="
    M10 10
    h80
    v3
    h-80
    Z
    M10 32
    h80
    v3
    h-80
    Z
    M10 54
    h80
    v3
    h-80
    Z
    M10 87
    h80
    v3
    h-80
    Z" fill="#333333"/>

  <!-- Camera Bodies (Top Shelf) -->
  <path d="
    M15 15
    h20
    v12
    h-20
    Z" fill="#666666"/>
  <!-- Camera Details -->
  <path d="
    M30 17
    h3
    v8
    h-3
    Z
    M18 18
    h8
    v6
    h-8
    Z" fill="#999999"/>

  <!-- Cinema Lenses -->
  <path d="
    M55 15
    h8
    l2 2
    v8
    l-2 2
    h-8
    Z" fill="#666666"/>
  <path d="
    M67 15
    h8
    l2 2
    v8
    l-2 2
    h-8
    Z" fill="#666666"/>
  <!-- Lens Rings -->
  <path d="
    M57 17
    h2
    v8
    h-2
    Z
    M69 17
    h2
    v8
    h-2
    Z" fill="#999999"/>

  <!-- HMI Lights (Middle Shelf) -->
  <path d="
    M15 37
    h15
    l3 3
    v8
    l-3 3
    h-15
    Z" fill="#666666"/>
  <!-- Light Details -->
  <path d="
    M18 40
    h9
    v4
    h-9
    Z" fill="#999999"/>

  <!-- LED Panels -->
  <path d="
    M55 37
    h25
    v12
    h-25
    Z" fill="#666666"/>
  <!-- LED Pattern -->
  <path d="
    M58 40
    h2
    v2
    h-2
    Z
    M63 40
    h2
    v2
    h-2
    Z
    M68 40
    h2
    v2
    h-2
    Z
    M73 40
    h2
    v2
    h-2
    Z
    M58 44
    h2
    v2
    h-2
    Z
    M63 44
    h2
    v2
    h-2
    Z
    M68 44
    h2
    v2
    h-2
    Z
    M73 44
    h2
    v2
    h-2
    Z" fill="#999999"/>

  <!-- Light Stands -->
  <path d="
    M15 59
    l3 -2
    h4
    l3 2
    v22
    h-10
    Z" fill="#666666"/>
  <path d="
    M28 59
    l3 -2
    h4
    l3 2
    v22
    h-10
    Z" fill="#666666"/>
  <!-- Stand Details -->
  <path d="
    M17 65
    h6
    v2
    h-6
    Z
    M30 65
    h6
    v2
    h-6
    Z" fill="#999999"/>

  <!-- Accessories (Bottom Right) -->
  <!-- Memory Cards -->
  <path d="
    M55 59
    h10
    v8
    h-10
    Z
    M68 59
    h10
    v8
    h-10
    Z" fill="#666666"/>
  <!-- Card Details -->
  <path d="
    M57 63
    h6
    v2
    h-6
    Z
    M70 63
    h6
    v2
    h-6
    Z" fill="#999999"/>

  <!-- Filter Cases -->
  <path d="
    M55 70
    h25
    v15
    h-25
    Z" fill="#666666"/>
  <!-- Filter Case Details -->
  <path d="
    M58 73
    h19
    v2
    h-19
    Z
    M58 77
    h19
    v2
    h-19
    Z
    M58 81
    h19
    v2
    h-19
    Z" fill="#999999"/>

</svg>
